<?xml version="1.0" encoding="utf-8"?>
<!-- Generator: Adobe Illustrator 16.0.3, SVG Export Plug-In . SVG Version: 6.00 Build 0)  -->
<!DOCTYPE svg PUBLIC "-//W3C//DTD SVG 1.1//EN" "http://www.w3.org/Graphics/SVG/1.1/DTD/svg11.dtd">
<svg version="1.1" id="Layer_1" xmlns="http://www.w3.org/2000/svg" xmlns:xlink="http://www.w3.org/1999/xlink" x="0px" y="0px"
	 width="38.572px" height="37.313px" viewBox="0 0 38.572 37.313" enable-background="new 0 0 38.572 37.313" xml:space="preserve">
<g>
	<path fill="#414242" d="M4.512,23.313h29.428c2.492,0,4.508-1.853,4.508-4.132v-1.062c0-2.28-2.016-4.128-4.508-4.128H4.512
		C2.014,13.99,0,15.838,0,18.119v1.062C0,21.459,2.014,23.313,4.512,23.313z M4.512,37.313h29.428c2.492,0,4.508-1.854,4.508-4.133
		v-1.061c0-2.281-2.016-4.129-4.508-4.129H4.512C2.014,27.99,0,29.838,0,32.119v1.061C0,35.459,2.014,37.313,4.512,37.313z
		 M4.637,9.322h29.428c2.492,0,4.508-1.853,4.508-4.132V4.128c0-2.28-2.016-4.128-4.508-4.128H4.637
		C2.139,0,0.125,1.848,0.125,4.128V5.19C0.125,7.469,2.139,9.322,4.637,9.322z"/>
</g>
</svg>
