<?xml version="1.0" encoding="utf-8"?>
<!-- Generator: Adobe Illustrator 16.0.3, SVG Export Plug-In . SVG Version: 6.00 Build 0)  -->
<!DOCTYPE svg PUBLIC "-//W3C//DTD SVG 1.1//EN" "http://www.w3.org/Graphics/SVG/1.1/DTD/svg11.dtd">
<svg version="1.1" id="Layer_1" xmlns="http://www.w3.org/2000/svg" xmlns:xlink="http://www.w3.org/1999/xlink" x="0px" y="0px"
	 width="22.268px" height="22.271px" viewBox="0 0 22.268 22.271" enable-background="new 0 0 22.268 22.271" xml:space="preserve">
<g>
	<g>
		<path fill="#424344" d="M21.628,12.65c0.353,0,0.64-0.288,0.64-0.64v-1.748c0-0.354-0.287-0.642-0.64-0.642h-1.524
			c-0.353,0-0.722-0.277-0.822-0.615l-0.876-2.131c-0.17-0.307-0.104-0.765,0.146-1.014l1.074-1.075c0.25-0.249,0.25-0.656,0-0.905
			l-1.236-1.239c-0.248-0.246-0.656-0.246-0.904,0l-1.078,1.079c-0.248,0.247-0.705,0.313-1.014,0.144l-2.131-0.877
			c-0.336-0.1-0.611-0.47-0.611-0.823V0.641C12.65,0.288,12.359,0,12.007,0H10.26C9.907,0,9.62,0.288,9.62,0.641v1.523
			c0,0.354-0.279,0.724-0.615,0.823l-2.13,0.877C6.566,4.034,6.11,3.968,5.86,3.721L4.785,2.644c-0.249-0.248-0.658-0.248-0.905,0
			L2.642,3.881c-0.249,0.249-0.249,0.656,0,0.905l1.075,1.075C3.966,6.11,4.032,6.568,3.863,6.875L2.987,9.006
			C2.886,9.344,2.515,9.621,2.164,9.621H0.64C0.288,9.621,0,9.909,0,10.263v1.748c0,0.352,0.288,0.64,0.64,0.64h1.524
			c0.352,0,0.722,0.276,0.823,0.614l0.876,2.13c0.169,0.309,0.103,0.765-0.146,1.014l-1.076,1.076c-0.249,0.248-0.249,0.657,0,0.905
			l1.237,1.239c0.249,0.245,0.657,0.245,0.906-0.002l1.075-1.078c0.25-0.247,0.706-0.312,1.014-0.143l2.13,0.877
			c0.336,0.099,0.615,0.47,0.615,0.823v1.522c0,0.353,0.287,0.642,0.64,0.642h1.748c0.352,0,0.643-0.289,0.643-0.642v-1.522
			c0-0.354,0.275-0.725,0.611-0.823l2.131-0.877c0.309-0.169,0.766-0.104,1.014,0.143l1.078,1.08c0.248,0.248,0.656,0.248,0.904,0
			l1.236-1.239c0.25-0.248,0.25-0.657,0-0.905l-1.076-1.076c-0.248-0.249-0.313-0.706-0.144-1.014l0.876-2.13
			c0.101-0.338,0.47-0.614,0.822-0.614H21.628z"/>
	</g>
	<circle fill="#FFFFFF" cx="11.134" cy="11.135" r="5.111"/>
</g>
</svg>
