<?xml version="1.0" encoding="utf-8"?>
<!-- Generator: Adobe Illustrator 16.0.3, SVG Export Plug-In . SVG Version: 6.00 Build 0)  -->
<!DOCTYPE svg PUBLIC "-//W3C//DTD SVG 1.1//EN" "http://www.w3.org/Graphics/SVG/1.1/DTD/svg11.dtd">
<svg version="1.1" id="Layer_1" xmlns="http://www.w3.org/2000/svg" xmlns:xlink="http://www.w3.org/1999/xlink" x="0px" y="0px"
	 width="44px" height="44px" viewBox="0 0 44 44" enable-background="new 0 0 44 44" xml:space="preserve">
<path fill="#414243" d="M28,16h16V0h-4v9.408C36.023,3.729,29.446,0,22,0C11.951,0,3.474,6.781,0.853,16h3.666
	C7.018,8.738,13.9,3.5,22,3.5c6.516,0,12.239,3.395,15.531,8.5H28V16z M0,28v16h4v-9.408C7.977,40.271,14.554,44,22,44
	c10.049,0,18.526-6.781,21.147-16h-3.666C36.982,35.262,30.1,40.5,22,40.5c-6.516,0-12.239-3.395-15.531-8.5H16v-4H0z"/>
</svg>
